REM DIRINDEX 1\2\6,1\2\7,1\2\8,1\2\9,1\3\10,1\3\11,1\4\12,1\4\13,1\4\14,1\5\15,1\5\16,1\5\17
REM DIRNAME folder01,folder02,folder03,folder04,folder05,folder06,folder07,folder08,folder09,folder10,folder11,folder12,folder13,folder14,folder15,folder16,folder17
TITLE ""
FILE "1900_3_066 sec11_1084_1100.mp3" MP3
  TRACK 01 AUDIO
    TITLE "0:"
    INDEX 01 00:00:00
  TRACK 02 AUDIO
    TITLE "17:cjc020_8145"
    INDEX 01 00:00:13
  TRACK 03 AUDIO
    TITLE "0:"
    INDEX 01 00:01:52
  TRACK 04 AUDIO
    TITLE "16:cjc020_8146"
    INDEX 01 00:01:56
  TRACK 05 AUDIO
    TITLE "0:"
    INDEX 01 00:02:73
  TRACK 06 AUDIO
    TITLE "17:cjc020_8147"
    INDEX 01 00:03:57
  TRACK 07 AUDIO
    TITLE "0:"
    INDEX 01 00:05:07
  TRACK 08 AUDIO
    TITLE "16:cjc020_8148"
    INDEX 01 00:05:16
  TRACK 09 AUDIO
    TITLE "0:"
    INDEX 01 00:06:24
  TRACK 10 AUDIO
    TITLE "17:cjc020_8149"
    INDEX 01 00:06:73
  TRACK 11 AUDIO
    TITLE "0:"
    INDEX 01 00:08:13
  TRACK 12 AUDIO
    TITLE "16:cjc020_8150"
    INDEX 01 00:08:21
  TRACK 13 AUDIO
    TITLE "0:"
    INDEX 01 00:09:22
  TRACK 14 AUDIO
    TITLE "17:cjc020_8151"
    INDEX 01 00:10:04
  TRACK 15 AUDIO
    TITLE "0:"
    INDEX 01 00:11:17
  TRACK 16 AUDIO
    TITLE "16:cjc020_8152"
    INDEX 01 00:11:19
  TRACK 17 AUDIO
    TITLE "0:"
    INDEX 01 00:12:12
  TRACK 18 AUDIO
    TITLE "17:cjc020_8153"
    INDEX 01 00:12:69
  TRACK 19 AUDIO
    TITLE "0:"
    INDEX 01 00:14:13
  TRACK 20 AUDIO
    TITLE "16:cjc020_8154"
    INDEX 01 00:14:17
  TRACK 21 AUDIO
    TITLE "0:"
    INDEX 01 00:15:25
  TRACK 22 AUDIO
    TITLE "17:cjc020_8155"
    INDEX 01 00:16:06
  TRACK 23 AUDIO
    TITLE "0:"
    INDEX 01 00:17:31
  TRACK 24 AUDIO
    TITLE "16:cjc020_8156"
    INDEX 01 00:17:33
  TRACK 25 AUDIO
    TITLE "0:"
    INDEX 01 00:18:25
  TRACK 26 AUDIO
    TITLE "17:cjc020_8157"
    INDEX 01 00:19:11
  TRACK 27 AUDIO
    TITLE "0:"
    INDEX 01 00:20:24
  TRACK 28 AUDIO
    TITLE "16:cjc020_8158"
    INDEX 01 00:20:26
  TRACK 29 AUDIO
    TITLE "0:"
    INDEX 01 00:21:25
  TRACK 30 AUDIO
    TITLE "17:cjc020_8159"
    INDEX 01 00:22:11
  TRACK 31 AUDIO
    TITLE "0:"
    INDEX 01 00:23:30
  TRACK 32 AUDIO
    TITLE "16:cjc020_8160"
    INDEX 01 00:23:32
  TRACK 33 AUDIO
    TITLE "0:"
    INDEX 01 00:24:29
  TRACK 34 AUDIO
    TITLE "17:cjc020_8161"
    INDEX 01 00:25:13
  TRACK 35 AUDIO
    TITLE "0:"
    INDEX 01 00:26:52
  TRACK 36 AUDIO
    TITLE "16:cjc020_8162"
    INDEX 01 00:26:56
  TRACK 37 AUDIO
    TITLE "0:"
    INDEX 01 00:27:57
  TRACK 38 AUDIO
    TITLE "17:cjc020_8163"
    INDEX 01 00:28:41
  TRACK 39 AUDIO
    TITLE "0:"
    INDEX 01 00:29:58
  TRACK 40 AUDIO
    TITLE "16:cjc020_8164"
    INDEX 01 00:29:64
  TRACK 41 AUDIO
    TITLE "0:"
    INDEX 01 00:30:65
  TRACK 42 AUDIO
    TITLE "17:cjc020_8165"
    INDEX 01 00:31:51
  TRACK 43 AUDIO
    TITLE "0:"
    INDEX 01 00:33:01
  TRACK 44 AUDIO
    TITLE "16:cjc020_8166"
    INDEX 01 00:33:07
  TRACK 45 AUDIO
    TITLE "0:"
    INDEX 01 00:34:20
  TRACK 46 AUDIO
    TITLE "17:cjc020_8167"
    INDEX 01 00:35:04
  TRACK 47 AUDIO
    TITLE "0:"
    INDEX 01 00:36:31
  TRACK 48 AUDIO
    TITLE "16:cjc020_8168"
    INDEX 01 00:36:33
  TRACK 49 AUDIO
    TITLE "0:"
    INDEX 01 00:37:38
  TRACK 50 AUDIO
    TITLE "17:cjc020_8169"
    INDEX 01 00:38:24
  TRACK 51 AUDIO
    TITLE "0:"
    INDEX 01 00:39:35
  TRACK 52 AUDIO
    TITLE "16:cjc020_8170"
    INDEX 01 00:39:37
  TRACK 53 AUDIO
    TITLE "0:"
    INDEX 01 00:40:40
  TRACK 54 AUDIO
    TITLE "17:cjc020_8171"
    INDEX 01 00:41:28
  TRACK 55 AUDIO
    TITLE "0:"
    INDEX 01 00:42:59
  TRACK 56 AUDIO
    TITLE "16:cjc020_8172"
    INDEX 01 00:42:65
  TRACK 57 AUDIO
    TITLE "0:"
    INDEX 01 00:43:64
  TRACK 58 AUDIO
    TITLE "17:cjc020_8173"
    INDEX 01 00:44:54
  TRACK 59 AUDIO
    TITLE "0:"
    INDEX 01 00:46:07
  TRACK 60 AUDIO
    TITLE "16:cjc020_8174"
    INDEX 01 00:46:17
  TRACK 61 AUDIO
    TITLE "0:"
    INDEX 01 00:47:21
  TRACK 62 AUDIO
    TITLE "17:cjc020_8175"
    INDEX 01 00:48:06
  TRACK 63 AUDIO
    TITLE "0:"
    INDEX 01 00:50:68
  TRACK 64 AUDIO
    TITLE "16:cjc020_8176"
    INDEX 01 00:51:01
  TRACK 65 AUDIO
    TITLE "0:"
    INDEX 01 00:52:04
  TRACK 66 AUDIO
    TITLE "17:cjc020_8177"
    INDEX 01 00:52:59
  TRACK 67 AUDIO
    TITLE "0:"
    INDEX 01 00:54:01
  TRACK 68 AUDIO
    TITLE "16:cjc020_8178"
    INDEX 01 00:54:07
  TRACK 69 AUDIO
    TITLE "0:"
    INDEX 01 00:55:14
